<?xml version="1.0" standalone="no"?>
<!DOCTYPE svg PUBLIC "-//W3C//DTD SVG 20010904//EN"
 "http://www.w3.org/TR/2001/REC-SVG-20010904/DTD/svg10.dtd">
<svg version="1.0" xmlns="http://www.w3.org/2000/svg"
 width="1280.000000pt" height="864.000000pt" viewBox="0 0 1280.000000 864.000000"
 preserveAspectRatio="xMidYMid meet">
<metadata>
Created by potrace 1.15, written by Peter Selinger 2001-2017
</metadata>
<g transform="translate(0.000000,864.000000) scale(0.100000,-0.100000)"
fill="#000000" stroke="none">
<path d="M2605 8630 c-109 -10 -301 -24 -615 -45 -269 -18 -363 -35 -580 -103
-648 -205 -1051 -394 -1240 -581 -106 -105 -126 -169 -136 -426 -10 -229 16
-984 56 -1650 31 -520 39 -720 51 -1345 16 -850 2 -1564 -41 -2105 -22 -288
-32 -445 -60 -965 -11 -206 -25 -451 -31 -545 -19 -286 0 -415 76 -531 41 -64
97 -110 196 -163 116 -63 203 -81 383 -81 230 0 331 33 516 165 185 133 227
138 564 70 229 -46 376 -67 581 -85 160 -13 372 -12 414 3 47 17 72 69 126
271 43 162 50 184 59 175 2 -2 36 -82 75 -177 81 -198 95 -222 125 -222 12 0
98 16 191 35 352 72 591 89 1108 82 389 -5 552 -19 646 -52 39 -13 81 -39 158
-94 l28 -20 165 34 c243 50 302 55 675 65 346 9 384 13 461 53 49 25 75 62
113 158 21 51 42 94 48 96 22 8 36 -68 30 -161 -10 -143 23 -193 176 -268 157
-78 282 -90 457 -43 246 65 445 98 717 116 205 14 291 6 517 -46 159 -37 196
-41 227 -24 35 18 40 57 40 274 0 241 13 248 29 17 12 -180 22 -219 58 -233
16 -6 130 -9 292 -7 308 3 279 7 765 -104 739 -167 696 -162 1356 -165 470 -3
538 -1 549 12 7 8 22 15 35 15 38 0 101 54 129 112 50 104 58 280 31 705 -49
785 -80 2216 -56 2578 24 361 69 602 186 1000 100 339 193 583 331 863 135
273 155 337 190 627 25 196 25 553 1 649 -24 95 -73 183 -122 218 -61 45 -190
112 -290 151 -81 32 -114 42 -208 62 l-28 6 57 62 c113 124 161 225 151 321
-13 127 -77 188 -407 392 -472 290 -1328 763 -1437 793 -162 45 -332 50 -417
12 -61 -26 -71 -53 -57 -145 7 -38 10 -70 8 -72 -2 -2 -71 3 -153 11 -82 9
-165 13 -185 10 -46 -8 -104 -56 -120 -100 -7 -19 -17 -35 -21 -35 -4 0 -22
25 -39 55 -44 78 -75 101 -161 116 -121 23 -290 16 -493 -19 -283 -48 -323
-53 -609 -62 -262 -8 -270 -9 -319 -35 -79 -41 -85 -12 -15 77 37 47 59 102
51 125 -12 35 -57 73 -107 89 -64 22 -190 23 -556 6 -151 -6 -539 -14 -862
-17 -684 -6 -684 -6 -772 -86 -28 -26 -61 -65 -71 -86 -36 -69 -42 -73 -114
-73 -97 0 -299 25 -526 66 -265 47 -378 64 -447 64 -53 0 -57 2 -76 34 -32 54
-86 66 -352 77 -124 5 -353 17 -510 25 -157 9 -360 18 -452 21 -159 5 -169 4
-204 -16 l-37 -22 -24 23 c-28 26 -100 31 -248 18z m3143 -408 c3 -16 -2 -22
-17 -22 -24 0 -35 15 -27 36 9 23 40 13 44 -14z"/>
</g>
</svg>
