{
  "asset": {
    "generator": "Khronos glTF Blender I/O v1.5.17",
    "version": "2.0"
  },
  "scene": 0,
  "scenes": [
    {
      "name": "Scene",
      "nodes": [
        0
      ]
    }
  ],
  "nodes": [
    {
      "mesh": 0,
      "name": "sphere_gltf"
    }
  ],
  "materials": [
    {
      "doubleSided": true,
      "name": "fabric_pattern_07",
      "normalTexture": {
        "index": 0
      },
      "pbrMetallicRoughness": {
        "baseColorTexture": {
          "index": 1
        },
        "metallicFactor": 0,
        "metallicRoughnessTexture": {
          "index": 2
        }
      }
    }
  ],
  "meshes": [
    {
      "name": "Sphere.001",
      "primitives": [
        {
          "attributes": {
            "POSITION": 0,
            "NORMAL": 1,
            "TEXCOORD_0": 2
          },
          "indices": 3,
          "material": 0
        }
      ]
    }
  ],
  "textures": [
    {
      "sampler": 0,
      "source": 0
    },
    {
      "sampler": 0,
      "source": 1
    },
    {
      "sampler": 0,
      "source": 2
    }
  ],
  "images": [
    {
      "mimeType": "image/jpeg",
      "name": "fabric_pattern_07_nor_gl_4k",
      "uri": "textures/fabric_pattern_07_nor_gl_1k.jpg"
    },
    {
      "mimeType": "image/jpeg",
      "name": "fabric_pattern_07_col_1_4k",
      "uri": "textures/fabric_pattern_07_col_1_1k.jpg"
    },
    {
      "mimeType": "image/jpeg",
      "name": "fabric_pattern_07_rough_4k",
      "uri": "textures/fabric_pattern_07_rough_1k.jpg"
    }
  ],
  "accessors": [
    {
      "bufferView": 0,
      "componentType": 5126,
      "count": 53892,
      "max": [
        0.19999761879444122,
        0.19999726116657257,
        0.19999776780605316
      ],
      "min": [
        -0.1999976485967636,
        -0.19999825954437256,
        -0.19999776780605316
      ],
      "type": "VEC3"
    },
    {
      "bufferView": 1,
      "componentType": 5126,
      "count": 53892,
      "type": "VEC3"
    },
    {
      "bufferView": 2,
      "componentType": 5126,
      "count": 53892,
      "type": "VEC2"
    },
    {
      "bufferView": 3,
      "componentType": 5123,
      "count": 322170,
      "type": "SCALAR"
    }
  ],
  "bufferViews": [
    {
      "buffer": 0,
      "byteLength": 646704,
      "byteOffset": 0
    },
    {
      "buffer": 0,
      "byteLength": 646704,
      "byteOffset": 646704
    },
    {
      "buffer": 0,
      "byteLength": 431136,
      "byteOffset": 1293408
    },
    {
      "buffer": 0,
      "byteLength": 644340,
      "byteOffset": 1724544
    }
  ],
  "samplers": [
    {
      "magFilter": 9729,
      "minFilter": 9987
    }
  ],
  "buffers": [
    {
      "byteLength": 2368884,
      "uri": "fabric_pattern_07.bin"
    }
  ]
}