<svg xmlns="http://www.w3.org/2000/svg" viewBox="0 0 512 512" style="height: 512px; width: 512px;"><g class="" transform="translate(0,0)" style=""><g><path d="M256 20C198.562 20 152 66.562 152 124C152 181.438 198.562 228 256 228C313.438 228 360 181.438 360 124C360 66.562 313.438 20 256 20Z" class="" fill="#000" fill-opacity="1"></path><path d="M16 256L16 496L64 496C128 336 384 336 448 496L496 496L496 256L448 256L448 320L388 320L388 256L340 256L340 320L280 320L280 256L232 256L232 320L172 320L172 256L124 256L124 320L64 320L64 256L16 256Z" class="selected" fill="#000" fill-opacity="1"></path></g></g></svg>